<svg width="32" height="32" viewBox="0 0 32 32" fill="none" xmlns="http://www.w3.org/2000/svg">
  <!-- 背景像素 -->
  <rect x="20" y="2" width="2" height="2" fill="#8B5CF6" />
  <rect x="22" y="2" width="2" height="2" fill="#8B5CF6" />
  <rect x="24" y="4" width="2" height="2" fill="#8B5CF6" />
  <rect x="26" y="6" width="2" height="2" fill="#8B5CF6" />
  
  <!-- 主体渐变 -->
  <path d="M6 8 H26 V24 H6 V8" fill="#6D28D9" />
  
  <!-- 白色面具 -->
  <rect x="10" y="12" width="4" height="4" fill="white" />
  <rect x="18" y="12" width="4" height="4" fill="white" />
  
  <!-- 紫色像素装饰 -->
  <rect x="8" y="6" width="2" height="2" fill="#7C3AED" />
  <rect x="10" y="4" width="2" height="2" fill="#7C3AED" />
  <rect x="12" y="2" width="2" height="2" fill="#7C3AED" />
  
  <!-- 底部火焰效果 -->
  <rect x="8" y="24" width="2" height="2" fill="#9333EA" />
  <rect x="12" y="26" width="2" height="2" fill="#9333EA" />
  <rect x="16" y="24" width="2" height="2" fill="#9333EA" />
  <rect x="20" y="26" width="2" height="2" fill="#9333EA" />
  <rect x="22" y="24" width="2" height="2" fill="#9333EA" />
</svg> 